<?xml version="1.0" encoding="UTF-8"?> <svg xmlns="http://www.w3.org/2000/svg" width="20" height="20" viewBox="0 0 20 20" fill="none"> <path d="M15.933 8.91142H12.0014V5.48027H10.7147C11.113 4.94858 11.327 4.30151 11.3243 3.6372C11.3243 2.64931 10.8568 1.72108 10.1043 1.2148L9.78508 1L9.46588 1.2148C8.71324 1.72115 8.24592 2.64935 8.24592 3.6372C8.24324 4.30151 8.4573 4.94858 8.85563 5.48023H7.42656V8.91138H4.06689C3.51729 8.91201 2.99038 9.13061 2.60175 9.51924C2.21312 9.90786 1.99452 10.4348 1.9939 10.9844V17.4154C1.99424 17.7187 2.11484 18.0094 2.32926 18.2238C2.54367 18.4382 2.83439 18.5588 3.13761 18.5591H16.8622C17.1655 18.5588 17.4562 18.4382 17.6706 18.2238C17.885 18.0094 18.0056 17.7187 18.0059 17.4154V10.9844C18.0053 10.4348 17.7867 9.9079 17.3981 9.51927C17.0095 9.13065 16.4826 8.91204 15.933 8.91142V8.91142ZM9.78508 2.45924C10.0349 2.76962 10.1806 3.19072 10.1806 3.63724C10.1806 4.08375 10.0349 4.50489 9.78508 4.81523C9.53529 4.50489 9.38964 4.08375 9.38964 3.6372C9.38964 3.19065 9.53529 2.76962 9.78508 2.45924ZM8.57028 6.62398H10.8577V8.91142H8.57028V6.62398ZM3.13761 10.9844C3.1379 10.738 3.23589 10.5018 3.41011 10.3276C3.58432 10.1534 3.82051 10.0554 4.06689 10.0551H15.933C16.1793 10.0554 16.4155 10.1534 16.5897 10.3276C16.764 10.5018 16.8619 10.738 16.8622 10.9844V12.113L16.0902 12.4537C15.9392 12.5201 15.7761 12.5544 15.6111 12.5544C15.4462 12.5544 15.283 12.5201 15.132 12.4537L13.7885 11.8608L12.4446 12.4536C12.2936 12.5201 12.1305 12.5544 11.9655 12.5544C11.8005 12.5544 11.6374 12.5201 11.4864 12.4536L10.1429 11.8608L8.79902 12.4536C8.64803 12.52 8.48487 12.5543 8.31991 12.5543C8.15494 12.5543 7.99179 12.52 7.8408 12.4536L6.49729 11.8608L5.15367 12.4536C5.00268 12.52 4.83952 12.5543 4.67456 12.5543C4.50959 12.5543 4.34643 12.52 4.19545 12.4536L3.13761 11.9869V10.9844ZM16.8622 17.4154H3.13761V13.237L3.73371 13.5C4.03019 13.6305 4.35057 13.6978 4.67449 13.6978C4.9984 13.6978 5.31878 13.6305 5.61527 13.5L6.49729 13.1109L7.37934 13.5C7.67582 13.6305 7.99619 13.6978 8.3201 13.6978C8.64402 13.6978 8.96439 13.6305 9.26087 13.5L10.1429 13.1109L11.0249 13.5C11.3213 13.6305 11.6417 13.6978 11.9656 13.6978C12.2895 13.6978 12.6099 13.6305 12.9064 13.5L13.7885 13.1109L14.6705 13.5001C14.967 13.6305 15.2873 13.6979 15.6112 13.6979C15.9351 13.6979 16.2555 13.6305 16.552 13.5001L16.8627 13.363L16.8629 17.4154H16.8622Z" fill="#FF7BAC"></path> </svg> 