<?xml version="1.0" encoding="UTF-8"?> <svg xmlns="http://www.w3.org/2000/svg" width="20" height="20" viewBox="0 0 20 20" fill="none"> <g clip-path="url(#clip0_145:59)"> <path d="M1.94291 18.2212C1.73512 18.1919 1.54137 18.3358 1.51127 18.5441C1.4949 18.6581 1.48657 18.7747 1.48657 18.8907C1.48657 19.1012 1.65717 19.2719 1.86776 19.2719C2.07834 19.2719 2.24894 19.1013 2.24894 18.8907C2.24894 18.8109 2.25462 18.7309 2.26593 18.6528C2.29584 18.4445 2.15129 18.2512 1.94291 18.2212Z" fill="#FF7BAC"></path> <path d="M17.7586 14.1744C17.0946 13.3766 16.1188 12.919 15.0817 12.919C15.0588 12.919 15.0362 12.9177 15.0134 12.9173L16.1308 6.24054C16.1338 6.22312 16.1369 6.20574 16.14 6.18831L16.4005 4.6308L16.4002 4.63077L16.9277 1.47913C16.9703 1.22439 16.8624 0.977511 16.646 0.834803C16.4305 0.692819 16.1513 0.691117 15.9342 0.830384L5.10959 7.77908C5.10949 7.77911 5.10938 7.77918 5.1093 7.77929L5.1026 7.78357C4.19575 8.36773 3.81055 9.37842 4.04573 10.5566C4.26997 11.6801 5.02842 12.8659 6.18135 13.8953C6.29798 13.9995 6.41798 14.1002 6.53979 14.1987C6.34952 15.4889 5.22191 16.4766 3.90067 16.4766C3.12805 16.4766 2.39622 16.8509 1.94314 17.4777C1.81981 17.6483 1.85813 17.8866 2.02876 18.0099C2.09624 18.0587 2.17433 18.0823 2.25177 18.0823C2.36992 18.0823 2.48648 18.0274 2.56099 17.9244C2.87121 17.4952 3.37203 17.239 3.90067 17.239C4.76713 17.239 5.59433 16.9151 6.23 16.327C6.71013 15.8827 7.04836 15.3182 7.21432 14.6976C8.11606 15.3069 9.11093 15.7627 10.1064 16.0128C10.66 16.1519 11.1944 16.2225 11.6948 16.2225H11.6951C12.872 16.2225 13.8209 15.83 14.3668 15.1176L14.3887 15.0892C14.6824 14.7466 14.799 14.1875 14.8114 14.1241L14.8862 13.6769C14.9511 13.6798 15.0162 13.6814 15.0817 13.6814C15.8918 13.6814 16.654 14.0389 17.1727 14.6621C17.2481 14.7526 17.3566 14.7994 17.4659 14.7994C17.5519 14.7994 17.6384 14.7705 17.7096 14.7112C17.8713 14.5765 17.8933 14.3361 17.7586 14.1744ZM15.6526 4.47955C15.0286 6.47119 13.8845 7.64977 11.5854 8.66868C11.226 8.42688 10.8209 8.19354 10.3705 7.98629C11.5796 7.52365 13.5064 6.67131 14.6421 5.57873C15.0749 5.1623 15.4156 4.71215 15.6931 4.23745L15.6526 4.47955ZM13.1246 11.1883L13.1501 11.2232C13.1584 11.2335 13.6534 11.8535 13.8815 12.7173C12.5115 12.2438 11.5058 10.9842 11.4062 9.48013C12.54 10.3093 13.1161 11.1752 13.1246 11.1883ZM15.5516 1.9819C14.8482 3.00502 13.5849 3.87557 9.39594 5.93343L15.5516 1.9819ZM15.2631 3.42126C14.9785 4.00477 14.6137 4.54826 14.1136 5.0293C12.8158 6.27792 10.2339 7.2382 9.47346 7.50279C9.41938 7.52158 9.37251 7.55161 9.33394 7.58903C9.32488 7.58624 9.31626 7.58312 9.30721 7.58037C8.95036 7.4712 8.60591 7.38623 8.275 7.32534C12.2497 5.41624 14.1652 4.37237 15.2631 3.42126ZM13.7619 14.6535C13.3633 15.1737 12.6293 15.4602 11.6951 15.4602H11.6948C11.257 15.4602 10.7852 15.3974 10.2923 15.2735C9.01534 14.9526 7.73571 14.2612 6.68913 13.3267C5.65873 12.4065 4.98543 11.3698 4.79328 10.4073C4.67086 9.79383 4.69672 8.95182 5.51559 8.42434L5.51751 8.42307C5.51772 8.42293 5.51798 8.42282 5.51816 8.42267L5.52261 8.41978C5.91984 8.165 6.36912 8.014 6.82177 7.9831C6.91431 7.97684 7.01033 7.97365 7.10718 7.97365C7.69087 7.97365 8.35606 8.08659 9.08409 8.30927C9.66271 8.48628 10.1796 8.72098 10.6346 8.98007V9.2343C10.6346 11.3114 12.0661 13.0603 13.9943 13.5466C13.9948 13.9035 13.9296 14.2785 13.7619 14.6535ZM14.4094 11.9086C14.1788 11.3528 13.8993 10.9514 13.7878 10.8023C14.1253 10.7428 14.4434 10.5701 14.6795 10.2943L14.4094 11.9086ZM14.136 9.75439C13.8893 10.0895 13.4171 10.1641 13.0833 9.92082C13.0704 9.91147 13.0571 9.90333 13.0436 9.89583C12.8351 9.67771 12.5807 9.43518 12.2803 9.18736C13.5718 8.56944 14.5196 7.86886 15.215 6.98773C14.9983 8.03743 14.71 8.97478 14.136 9.75439Z" fill="#FF7BAC"></path> <path d="M18.5062 15.7726C18.4634 15.539 18.3966 15.3096 18.3078 15.0906C18.2286 14.8954 18.0063 14.8015 17.8113 14.8805C17.6162 14.9597 17.5222 15.182 17.6013 15.377C17.6706 15.5481 17.7228 15.7275 17.7563 15.91C17.79 16.0939 17.9503 16.2225 18.1308 16.2225C18.1536 16.2225 18.1767 16.2205 18.2 16.2162C18.407 16.1782 18.5441 15.9797 18.5062 15.7726Z" fill="#FF7BAC"></path> <path d="M2.54689 11.8471L2.89289 12.7822C2.9486 12.9327 3.06729 13.0514 3.21784 13.1071L4.15289 13.4531C4.16765 13.4586 4.17397 13.4655 4.17757 13.4709C4.18207 13.4778 4.18554 13.4879 4.18554 13.5C4.18554 13.5121 4.18207 13.5222 4.17757 13.5291C4.17397 13.5345 4.16765 13.5414 4.15289 13.5469L3.21784 13.8929C3.06729 13.9486 2.9486 14.0673 2.89289 14.2178L2.54689 15.1529C2.54143 15.1677 2.53454 15.174 2.52906 15.1776C2.52221 15.1821 2.51212 15.1855 2.5 15.1855C2.48788 15.1855 2.47779 15.1821 2.47094 15.1776C2.46546 15.174 2.45857 15.1677 2.45311 15.1529L2.10711 14.2178C2.0514 14.0673 1.93271 13.9486 1.78216 13.8929L0.847111 13.5469C0.832348 13.5414 0.826029 13.5345 0.822427 13.5291C0.817931 13.5222 0.814463 13.5121 0.814463 13.5C0.814463 13.4879 0.817931 13.4778 0.822427 13.4709C0.826028 13.4655 0.832348 13.4586 0.847111 13.4531L1.78216 13.1071C1.93271 13.0514 2.0514 12.9327 2.10711 12.7822L2.45311 11.8471C2.45857 11.8323 2.46546 11.826 2.47094 11.8224C2.47779 11.8179 2.48788 11.8145 2.5 11.8145C2.51212 11.8145 2.52221 11.8179 2.52906 11.8224C2.53454 11.826 2.54143 11.8323 2.54689 11.8471Z" stroke="#FF7BAC" stroke-width="0.5"></path> <path d="M5.52814 4.50827L5.73574 5.0693C5.76916 5.15962 5.84038 5.23084 5.9307 5.26426L6.49173 5.47186C6.50059 5.47514 6.50438 5.47928 6.50654 5.48257C6.50924 5.48668 6.51132 5.49273 6.51132 5.5C6.51132 5.50727 6.50924 5.51332 6.50654 5.51743C6.50438 5.52072 6.50059 5.52486 6.49173 5.52814L5.9307 5.73574C5.84038 5.76916 5.76916 5.84038 5.73574 5.9307L5.52814 6.49173C5.52486 6.50059 5.52072 6.50438 5.51743 6.50654C5.51332 6.50924 5.50727 6.51132 5.5 6.51132C5.49273 6.51132 5.48668 6.50924 5.48257 6.50654C5.47928 6.50438 5.47514 6.50059 5.47186 6.49173L5.26426 5.9307C5.23084 5.84038 5.15962 5.76916 5.0693 5.73574L4.50827 5.52814C4.49941 5.52486 4.49562 5.52072 4.49346 5.51743C4.49076 5.51332 4.48868 5.50727 4.48868 5.5C4.48868 5.49273 4.49076 5.48668 4.49346 5.48257C4.49562 5.47928 4.49941 5.47514 4.50827 5.47186L5.0693 5.26426C5.15962 5.23084 5.23084 5.15962 5.26426 5.0693L5.47186 4.50827C5.47514 4.49941 5.47928 4.49562 5.48257 4.49346C5.48668 4.49076 5.49273 4.48868 5.5 4.48868C5.50727 4.48868 5.51332 4.49076 5.51743 4.49346C5.52072 4.49562 5.52486 4.49941 5.52814 4.50827Z" stroke="#FF7BAC" stroke-width="0.3"></path> </g> <defs> <clipPath id="clip0_145:59"> <rect width="19.999" height="19.999" fill="white"></rect> </clipPath> </defs> </svg> 