<?xml version="1.0" encoding="UTF-8"?> <svg xmlns="http://www.w3.org/2000/svg" width="20" height="20" viewBox="0 0 20 20" fill="none"> <path d="M4.44017 16.5008C4.13623 16.5013 3.83357 16.4614 3.54017 16.382C2.65949 16.1309 1.91232 15.5446 1.45896 14.7489C1.00561 13.9532 0.882183 13.0115 1.11517 12.1258L2.57142 6.60079C2.68483 6.15365 2.88645 5.73367 3.16443 5.36554C3.44241 4.9974 3.79115 4.68852 4.19017 4.45704C4.57869 4.23201 5.008 4.0863 5.45323 4.02837C5.89845 3.97044 6.35075 4.00142 6.78392 4.11954C7.24438 4.24741 7.67326 4.46954 8.04337 4.77187C8.41347 5.07419 8.71673 5.45011 8.93392 5.87579H10.5589C10.7752 5.44942 11.0781 5.07295 11.4484 4.77052C11.8186 4.46808 12.248 4.24635 12.7089 4.11954C13.1421 4.00142 13.5944 3.97044 14.0396 4.02837C14.4848 4.0863 14.9142 4.23201 15.3027 4.45704C15.6997 4.68793 16.0472 4.99511 16.325 5.36089C16.6029 5.72667 16.8055 6.14382 16.9214 6.58829L18.3777 12.1258C18.6141 13.014 18.4917 13.9596 18.0368 14.7584C17.5819 15.5571 16.831 16.1448 15.9464 16.3945C15.5133 16.5127 15.061 16.5436 14.6157 16.4857C14.1705 16.4278 13.7412 16.2821 13.3527 16.057C12.9549 15.827 12.607 15.52 12.3291 15.1541C12.0511 14.7882 11.8488 14.3707 11.7339 13.9258L11.6214 13.3758H7.87142L7.72767 13.9133C7.61276 14.3582 7.41045 14.7757 7.13253 15.1416C6.85462 15.5075 6.50665 15.8145 6.10892 16.0445C5.6011 16.3374 5.02638 16.4946 4.44017 16.5008V16.5008ZM5.89017 5.25079C5.51301 5.25207 5.14262 5.35113 4.81517 5.53829C4.30195 5.8394 3.92891 6.33155 3.77767 6.90704L2.32142 12.432C2.16904 13.0013 2.24604 13.6075 2.53587 14.1206C2.8257 14.6336 3.30524 15.0125 3.87142 15.1758C4.14486 15.2504 4.43038 15.27 4.71145 15.2335C4.99252 15.197 5.26358 15.1052 5.50892 14.9633C5.76436 14.8158 5.98773 14.6188 6.16591 14.3837C6.34408 14.1486 6.47345 13.8803 6.54642 13.5945L6.93392 12.1258H12.5589L12.9402 13.5945C13.0144 13.8798 13.1443 14.1475 13.3224 14.3824C13.5004 14.6173 13.7231 14.8147 13.9777 14.9633C14.2242 15.1051 14.4963 15.1968 14.7784 15.2333C15.0604 15.2697 15.3469 15.2502 15.6214 15.1758C16.1883 15.014 16.6684 14.6351 16.9575 14.1213C17.2465 13.6076 17.3212 13.0005 17.1652 12.432L15.7089 6.90704C15.6364 6.62191 15.5078 6.35406 15.3308 6.11908C15.1537 5.88409 14.9317 5.68667 14.6777 5.53829C14.4311 5.39652 14.159 5.30477 13.877 5.26831C13.5949 5.23184 13.3084 5.25138 13.0339 5.32579C12.6945 5.42256 12.383 5.59892 12.1253 5.84024C11.8677 6.08156 11.6714 6.38086 11.5527 6.71329L11.4027 7.12579H8.09017L7.94017 6.71329C7.82039 6.38042 7.62296 6.0809 7.36426 5.8396C7.10557 5.59829 6.79306 5.42215 6.45267 5.32579C6.26925 5.27633 6.08014 5.25112 5.89017 5.25079V5.25079Z" fill="#FF7BAC"></path> <path d="M6.25 10C6.00277 10 5.7611 9.92669 5.55554 9.78934C5.34998 9.65199 5.18976 9.45676 5.09515 9.22835C5.00054 8.99995 4.97579 8.74861 5.02402 8.50614C5.07225 8.26366 5.1913 8.04093 5.36612 7.86612C5.54093 7.6913 5.76366 7.57225 6.00614 7.52402C6.24861 7.47579 6.49995 7.50054 6.72835 7.59515C6.95676 7.68976 7.15199 7.84998 7.28934 8.05554C7.42669 8.2611 7.5 8.50277 7.5 8.75C7.5 9.08152 7.3683 9.39946 7.13388 9.63388C6.89946 9.8683 6.58152 10 6.25 10Z" fill="#FF7BAC"></path> <path d="M13.75 8.125C14.0952 8.125 14.375 7.84518 14.375 7.5C14.375 7.15482 14.0952 6.875 13.75 6.875C13.4048 6.875 13.125 7.15482 13.125 7.5C13.125 7.84518 13.4048 8.125 13.75 8.125Z" fill="#FF7BAC"></path> <path d="M13.75 10.625C14.0952 10.625 14.375 10.3452 14.375 10C14.375 9.65482 14.0952 9.375 13.75 9.375C13.4048 9.375 13.125 9.65482 13.125 10C13.125 10.3452 13.4048 10.625 13.75 10.625Z" fill="#FF7BAC"></path> <path d="M12.5 9.375C12.8452 9.375 13.125 9.09518 13.125 8.75C13.125 8.40482 12.8452 8.125 12.5 8.125C12.1548 8.125 11.875 8.40482 11.875 8.75C11.875 9.09518 12.1548 9.375 12.5 9.375Z" fill="#FF7BAC"></path> <path d="M15 9.375C15.3452 9.375 15.625 9.09518 15.625 8.75C15.625 8.40482 15.3452 8.125 15 8.125C14.6548 8.125 14.375 8.40482 14.375 8.75C14.375 9.09518 14.6548 9.375 15 9.375Z" fill="#FF7BAC"></path> </svg> 