<?xml version="1.0" encoding="UTF-8"?> <svg xmlns="http://www.w3.org/2000/svg" width="20" height="20" viewBox="0 0 20 20" fill="none"> <path fill-rule="evenodd" clip-rule="evenodd" d="M2.75696 15.0045L10.3165 5.57303C10.3165 5.57303 10.3195 3.99507 11.6145 2.8884C13.1932 1.53949 15.6745 1.76504 16.9753 3.20829C18.276 4.65163 18.6287 7.00778 16.8504 8.69767C15.7433 9.74958 14.4967 9.73948 14.4967 9.73948L5.03197 17.2991L4.09818 16.3857L2.37272 17.9934C2.37272 17.9934 2.22991 18.1122 2.0885 17.9357C1.9471 17.7593 2.01755 17.6077 2.01755 17.6077L3.72033 15.9885L2.75696 15.0045V15.0045ZM4.5287 14.8902L5.09702 15.4382L12.6083 9.52712C12.6083 9.52712 11.8078 9.08581 11.3278 8.58085C10.8477 8.07588 10.5703 7.38353 10.5703 7.38353L4.5287 14.8902V14.8902ZM12.1064 4.33035C12.1064 4.33035 10.7774 6.16314 12.346 7.66105C13.9148 9.15906 15.7002 7.90089 15.7002 7.90089C15.7002 7.90089 14.0942 7.52844 13.2229 6.66271C12.3514 5.79708 12.1064 4.33025 12.1064 4.33025V4.33035ZM12.6453 3.87934C12.6453 3.87934 13.0153 5.28931 13.9046 6.18512C14.7939 7.08103 16.1905 7.45049 16.1905 7.45049C16.1905 7.45049 17.4782 5.49978 15.8636 4.02095C14.249 2.54212 12.6453 3.87934 12.6453 3.87934V3.87934Z" fill="#FF7BAC"></path> </svg> 