<?xml version="1.0" encoding="UTF-8"?> <svg xmlns="http://www.w3.org/2000/svg" width="20" height="21" viewBox="0 0 20 21" fill="none"> <path d="M18.0328 6.91776H16.797C16.797 5.86565 15.9937 5.0611 14.9433 5.0611H5.05661C4.00616 5.0611 3.20287 5.86565 3.20287 6.91776H1.96704C1.59629 6.91776 1.34912 7.16532 1.34912 7.53665V11.8689C1.34912 12.2402 1.59629 12.4878 1.96704 12.4878H3.20287C3.20287 13.5399 4.00616 14.3444 5.05661 14.3444H7.46648C7.96081 14.3444 8.45514 14.1588 8.7641 13.7874L9.5056 13.0448C9.75277 12.7972 10.1235 12.7972 10.3707 13.0448L11.1122 13.7874C11.4829 14.1588 11.9155 14.3444 12.4098 14.3444H14.9433C15.9937 14.3444 16.797 13.5399 16.797 12.4878H18.0328C18.4036 12.4878 18.6507 12.2402 18.6507 11.8689V7.53665C18.6507 7.16532 18.4036 6.91776 18.0328 6.91776ZM13.0895 8.77443H6.91036C6.53961 8.77443 6.29244 8.52687 6.29244 8.15554C6.29244 7.78421 6.53961 7.53665 6.91036 7.53665H13.0895C13.4603 7.53665 13.7074 7.78421 13.7074 8.15554C13.7074 8.52687 13.4603 8.77443 13.0895 8.77443Z" fill="#FF7BAC"></path> </svg> 