<?xml version="1.0" standalone="no"?>
<!DOCTYPE svg PUBLIC "-//W3C//DTD SVG 20010904//EN"
 "http://www.w3.org/TR/2001/REC-SVG-20010904/DTD/svg10.dtd">
<svg version="1.0" xmlns="http://www.w3.org/2000/svg"
 width="512.000000pt" height="512.000000pt" viewBox="0 0 512.000000 512.000000"
 preserveAspectRatio="xMidYMid meet">
<metadata>
Created by potrace 1.14, written by Peter Selinger 2001-2017
</metadata>
<g transform="translate(0.000000,512.000000) scale(0.100000,-0.100000)"
fill="#000000" stroke="none">
<path d="M2384 5110 c-1133 -83 -2072 -890 -2318 -1993 -80 -357 -80 -756 0
-1117 50 -224 151 -489 259 -681 407 -719 1099 -1187 1915 -1295 159 -21 508
-24 640 -6 576 81 1080 327 1479 723 410 407 662 916 742 1499 17 123 18 516
1 635 -85 593 -327 1088 -733 1494 -398 397 -895 646 -1454 727 -126 18 -386
25 -531 14z m529 -710 c573 -110 1079 -498 1332 -1025 129 -267 184 -513 185
-814 0 -298 -57 -550 -185 -816 -274 -568 -830 -967 -1458 -1045 -142 -17
-384 -13 -522 9 -617 102 -1133 491 -1400 1056 -122 257 -176 500 -176 794 0
228 22 370 88 576 233 728 908 1253 1663 1294 153 8 338 -3 473 -29z"/>
<path d="M2405 4123 c-188 -22 -392 -81 -541 -156 -445 -224 -759 -641 -850
-1132 -26 -139 -26 -411 0 -550 135 -725 739 -1255 1471 -1291 348 -17 690 82
980 284 105 74 271 236 351 342 417 557 417 1322 0 1880 -35 47 -113 133 -173
191 -247 238 -539 379 -883 425 -96 12 -280 16 -355 7z m305 -740 l1 -358 390
-170 390 -169 -3 -103 -3 -103 -395 -550 -395 -550 -142 0 -143 0 0 348 0 348
-387 180 -388 179 0 102 0 102 395 551 395 550 143 0 142 0 0 -357z"/>
</g>
</svg>
