<?xml version="1.0" encoding="UTF-8"?> <svg xmlns="http://www.w3.org/2000/svg" width="259" height="62" viewBox="0 0 259 62" fill="none"> <path d="M23.1649 12.8947C23.0834 16.7505 23.0321 18.6834 22.914 22.553C22.9149 22.6363 22.9158 22.7608 22.9167 22.9266C22.9232 23.9237 23.0413 24.5903 23.272 24.9245C23.5037 25.2587 23.9697 25.4281 24.6711 25.4345C26.5986 25.4501 27.9986 24.8366 28.8657 23.6014C29.7319 22.3662 30.1513 20.3884 30.1083 17.6615C30.025 12.4002 28.4555 9.71827 25.4815 9.59648C24.6354 9.56169 24.0439 9.78511 23.706 10.2677C23.3672 10.7502 23.1878 11.6265 23.1649 12.8947ZM25.1976 34.0435C24.3891 34.0279 23.8324 34.3731 23.5989 35.0113C23.3654 35.6505 23.2436 37.1329 23.2226 39.4568C23.1905 42.9702 23.3242 45.7016 23.6383 47.6473C23.7372 48.1958 23.8919 48.6161 24.1034 48.9109C24.3149 49.2058 24.7206 49.562 25.3194 49.9758C26.6013 50.8283 27.2221 51.9875 27.1809 53.4608C27.1306 55.2628 26.1893 56.5841 24.3708 57.4421C22.5532 58.3 19.5096 58.865 15.2344 59.1241C7.28473 59.6058 3.31079 57.834 3.31079 53.8078C3.31079 53.1174 3.42983 52.5589 3.6679 52.1313C3.90689 51.7055 4.44987 51.0957 5.29776 50.321C6.24912 49.4521 6.90473 48.4513 7.24535 47.3122C7.58598 46.174 7.81855 44.2118 7.96506 41.4548C8.07219 39.4348 8.16009 32.1746 8.13262 19.6952C8.12438 15.7359 7.96048 13.0403 7.65099 11.6036C7.3415 10.1679 6.68223 9.08463 5.686 8.40155C4.74654 7.75785 4.09093 7.18008 3.76496 6.66273C3.4399 6.14539 3.27783 5.48246 3.27783 4.6776C3.27783 3.61453 3.58549 2.70253 4.19898 1.94621C4.81247 1.19171 5.66677 0.661545 6.76006 0.355717C7.68304 0.0974998 8.94938 0.0178452 10.5609 0.115822C11.2696 0.158855 13.0433 0.409744 15.8855 0.857498C16.4239 0.946316 17.2736 1.02415 18.4337 1.09282C20.3694 1.20819 22.9589 1.17981 26.1572 1.0626C28.1836 0.987518 29.6166 0.988434 30.4324 1.0388C35.0281 1.32082 38.9004 2.9342 42.0511 5.80385C44.8915 8.39148 46.4307 11.8206 46.5644 16.1635C46.6395 18.5864 46.2064 20.7821 45.2742 22.7681C44.3412 24.7542 43.0254 26.2513 41.3433 27.2576C40.6438 27.6815 40.2949 28.1897 40.2958 28.7785C40.2977 29.5559 40.8342 30.1849 41.9074 30.6629C44.2066 31.6738 45.8895 33.1892 46.938 35.21C47.9855 37.2318 48.6951 40.3313 49.0119 44.47C49.1438 46.1878 49.38 47.2957 49.7261 47.7893C50.0732 48.2828 50.9082 48.737 52.2295 49.1472C52.6342 49.2854 52.9639 49.6004 53.2175 50.0903C53.4721 50.5811 53.5801 51.1341 53.5426 51.7504C53.494 52.5479 53.1827 53.3619 52.6114 54.1988C52.04 55.0357 51.3285 55.7087 50.4797 56.2206C48.6035 57.3304 46.1029 57.9915 42.9695 58.1874C38.7841 58.4484 35.8686 57.2772 34.1628 54.6081C33.3909 53.4169 32.7472 51.8868 32.228 50.017C31.7079 48.1491 31.1045 45.2172 30.3811 41.2021C29.9169 38.6254 29.2915 36.8014 28.5224 35.742C27.7523 34.6826 26.6032 34.0728 25.1976 34.0435Z" fill="#FF7BAC"></path> <path d="M75.8809 13.8567C74.0963 13.7533 72.6825 14.6872 71.7055 16.4993C70.9693 17.8645 70.6104 19.5255 70.6727 21.4557C70.7642 24.2897 71.3292 27.5869 72.3144 31.3045C73.3006 35.022 74.469 38.2918 75.8589 41.0955C76.477 42.2905 77.2544 43.2254 78.2003 43.9048C79.1461 44.5851 80.1268 44.9019 81.1505 44.868C82.8042 44.8113 84.1914 44.076 85.2956 42.6714C86.3999 41.2659 87.0162 39.4483 87.1031 37.1985C87.2158 34.2721 86.8422 31.1122 85.9522 27.7023C85.0612 24.2933 83.8398 21.3678 82.3591 18.923C81.4517 17.4168 80.4171 16.2191 79.2716 15.3282C78.1252 14.4382 76.9705 13.9199 75.8809 13.8567ZM77.9613 3.56479C83.4762 3.90998 88.548 5.94365 93.1144 9.5678C96.2102 12.0565 98.8629 15.1917 100.875 18.9853C102.867 22.7413 103.859 26.5 103.847 30.2387C103.83 35.7536 101.789 40.6798 97.9848 45.1327C94.7571 48.9088 90.6669 51.7464 85.8771 53.6217C82.936 54.7726 80.0435 55.4457 77.2086 55.6196C73.4929 55.8467 70.0455 55.203 66.7986 53.6024C62.8732 51.6695 59.879 48.4876 57.7144 44.0494C55.6212 39.7569 54.5691 34.8801 54.5654 29.5483C54.5618 23.3584 55.8922 17.9076 58.5925 13.3577C60.9951 9.30959 64.2695 6.50586 68.433 4.87417C71.2294 3.77905 74.3985 3.34228 77.9613 3.56479Z" fill="#FF7BAC"></path> <path d="M127.894 15.7045C126.104 15.6065 124.744 16.4214 123.844 18.0138C123.164 19.2142 122.863 20.682 122.974 22.3924C123.136 24.9031 123.748 27.8341 124.717 31.1341C125.685 34.4351 126.777 37.3304 128.067 39.8008C128.643 40.8529 129.38 41.6742 130.295 42.2676C131.209 42.8609 132.172 43.1356 133.196 43.1008C134.849 43.044 136.273 42.3948 137.434 41.1569C138.596 39.9198 139.279 38.3202 139.42 36.335C139.602 33.7538 139.264 30.9583 138.351 27.9431C137.438 24.9269 136.142 22.3402 134.578 20.1829C133.619 18.8534 132.534 17.7967 131.349 17.0102C130.164 16.2246 128.989 15.7649 127.894 15.7045ZM129.273 6.77229C134.789 7.11658 140.025 8.89843 144.83 12.0602C148.089 14.2312 150.926 16.9653 153.079 20.2928C155.209 23.5846 156.27 26.8938 156.253 30.1837C156.227 35.0366 154.022 39.3631 149.986 43.2574C146.564 46.5601 142.268 49.0306 137.348 50.6824C134.327 51.696 131.392 52.2985 128.557 52.4725C124.842 52.7005 121.47 52.1767 118.352 50.8097C114.583 49.1569 111.81 46.3889 109.83 42.469C107.914 38.6782 106.978 34.3298 106.971 29.5739C106.963 24.0525 108.131 19.1968 110.611 15.1917C112.818 11.6289 115.876 9.20609 119.898 7.82346C122.596 6.8959 125.711 6.54979 129.273 6.77229Z" fill="#FF7BAC"></path> <path d="M191.131 37.112C189.124 40.1162 188.012 41.6206 185.593 44.569C184.559 45.8125 183.736 46.6439 183.181 47.0779C182.626 47.5119 182.098 47.7418 181.601 47.7692C181.128 47.7958 180.769 47.653 180.519 47.3371C180.355 47.1374 180.09 46.3921 179.632 45.0516C179.174 43.7111 178.756 42.485 178.419 41.3981C177.386 38.1164 176.73 36.4069 175.174 32.9467C174.645 31.7426 174.025 31.1355 173.368 31.1383C172.666 31.1401 172.279 31.6657 172.164 32.7077C171.907 35.027 171.601 37.1678 171.311 39.1053C171.01 41.1216 170.808 42.4823 170.887 43.1553C170.934 43.5572 171.076 43.8622 171.281 44.0398C171.485 44.2183 172.082 44.5297 173.06 44.9646C173.692 45.2503 173.902 45.7795 173.672 46.5487C173.057 48.6007 169.579 49.7736 163.413 50.1472C158.214 50.4622 155.959 49.5987 156.5 47.4881C156.639 46.947 156.868 46.5459 157.196 46.2896C157.525 46.0332 158.309 45.6358 159.546 45.1001C160.327 44.7778 160.898 44.3594 161.254 43.842C161.609 43.3247 162.023 42.3257 162.44 40.8442C162.885 39.2619 163.465 36.6432 163.808 32.9705C164.151 29.2978 164.099 26.1434 163.863 23.5438C163.569 20.2832 162.888 18.1058 162.129 16.9502C161.859 16.551 161.577 16.2497 161.288 16.0446C160.998 15.8395 160.474 15.5676 159.713 15.226C158.03 14.499 157.073 13.5998 156.812 12.5514C156.642 11.8729 156.764 11.2704 157.179 10.7467C157.594 10.2238 158.246 9.88779 159.111 9.71015C159.974 9.53252 161.177 9.38693 162.698 9.30727C164.218 9.22852 165.523 9.22486 166.618 9.29261C169.366 9.46201 171.379 9.77058 172.654 10.2138C173.276 10.4262 173.804 10.6926 174.233 11.0159C174.662 11.3391 175.345 11.992 176.247 12.9836C180.237 17.2863 182.055 19.4994 185.258 23.8735C186.132 25.073 186.693 25.8046 186.996 26.071C187.299 26.3384 187.701 26.4739 188.205 26.4785C188.644 26.4822 189.024 26.3448 189.343 26.0683C189.663 25.7908 190.024 25.2717 190.406 24.5163C191.942 21.4781 192.594 19.9865 193.636 17.1452C193.945 16.2314 194.12 15.6509 194.204 15.3817C194.709 13.6978 195.296 12.6531 196.085 12.165C197.09 11.5442 199.306 11.3354 202.763 11.5488C208.839 11.9242 212.453 13.0724 213.316 15.1272C213.51 15.5886 213.537 15.9576 213.406 16.2296C213.276 16.5015 212.904 16.8229 212.317 17.2057C211.518 17.7267 211.144 18.5673 211.184 19.6651C211.269 21.9616 211.573 24.9036 211.692 28.384C211.845 32.867 211.52 36.7988 211.184 40.0265C211.105 40.8167 211.139 41.3423 211.322 41.6151C211.506 41.888 212.071 42.2845 213 42.7908C213.64 43.1489 213.835 43.6479 213.57 44.2861C213.106 45.4014 211.723 46.2209 209.5 46.7895C208.345 47.099 207.177 47.3279 206 47.4753C204.821 47.6227 203.051 47.7683 200.688 47.9121C197.057 48.1318 194.439 48.1053 192.826 47.8068C191.041 47.4772 190.361 46.7483 190.751 45.6239C190.895 45.2091 191.138 44.8593 191.485 44.5764C191.831 44.2943 192.661 43.7706 193.953 43.0079C194.625 42.616 195.216 41.8926 195.679 40.8204C196.141 39.749 196.66 37.926 196.964 35.3036C197.133 33.8467 197.103 32.8844 196.964 32.4275C196.825 31.9706 196.488 31.7417 195.961 31.7453C195.348 31.7481 194.746 32.107 194.133 32.823C193.519 33.54 192.577 34.9712 191.131 37.112Z" fill="#FF7BAC"></path> <path d="M233.571 13.291C235.782 13.4292 238.919 13.9603 242.962 14.8558C243.446 14.962 243.817 15.0225 244.075 15.0371C244.29 15.049 244.859 14.9629 245.771 14.7871C246.06 14.7276 246.398 14.7102 246.785 14.7331C248.226 14.8183 250.274 15.5892 252.723 17.1028C255.173 18.6155 256.639 20.0558 257.137 21.4348C257.428 22.2396 257.266 22.919 256.682 23.4693C256.1 24.0197 255.267 24.2916 254.218 24.2705C253.343 24.2541 252.607 24.1195 252.004 23.8667C251.403 23.6149 250.043 22.8723 247.817 21.6353C244.674 19.8827 241.731 18.9552 239.211 18.8572C237.994 18.8105 237.105 18.9744 236.527 19.3599C235.949 19.7463 235.774 20.281 235.979 20.9678C236.384 22.3239 238.279 23.4062 241.749 24.1662C246.455 25.1972 249.46 25.9306 250.786 26.3756C256.615 28.3489 259.622 31.1086 258.892 34.6733C258.246 37.8249 255.205 40.321 250.403 42.3565C245.491 44.4378 239.802 45.6547 233.638 46.0319C230.889 46.2004 228.13 46.1693 225.327 45.9019C222.524 45.6345 220.581 45.2207 219.526 44.6557C218.721 44.2235 218.286 43.1797 218.033 41.4674C217.781 39.7561 217.79 38.0108 218.092 36.283C218.237 35.4525 218.543 34.817 219.029 34.3839C219.642 33.8373 220.358 33.5498 221.19 33.5406C222.022 33.5305 222.792 33.8528 223.471 34.4956C223.882 34.8582 224.833 36.0376 226.063 37.9302C226.648 38.8221 227.706 39.5271 229.266 40.0491C230.825 40.5719 232.524 40.7852 234.393 40.7138C236.001 40.6525 237.387 40.3952 238.54 39.941C239.692 39.4878 240.38 38.9375 240.58 38.2764C240.766 37.6629 240.513 37.1382 239.835 36.7033C239.157 36.2674 237.968 35.8691 236.272 35.5038C233.279 34.8436 230.988 34.2035 229.416 33.6038C227.845 33.004 226.384 32.2303 224.999 31.2762C221.636 28.9312 219.787 26.1568 219.245 23.1553C218.978 21.671 219.074 20.2517 219.541 18.924C220.008 17.5973 220.815 16.5058 222.015 15.6442C224.672 13.6481 228.378 12.9668 233.571 13.291Z" fill="#FF7BAC"></path> <path d="M19.8871 15.4812C19.8056 19.3371 19.7543 21.27 19.6362 25.1395C19.6371 25.2229 19.638 25.3474 19.6389 25.5131C19.6453 26.5103 19.7634 27.176 19.9942 27.5111C20.2258 27.8453 20.6919 28.0147 21.3933 28.0211C23.3208 28.0367 24.7208 27.4232 25.5879 26.188C26.4541 24.9528 26.8735 22.9749 26.8304 20.2481C26.7471 14.9868 25.1777 12.3048 22.2037 12.1831C21.3576 12.1483 20.7661 12.3717 20.4273 12.8542C20.0894 13.3368 19.9099 14.2131 19.8871 15.4812ZM21.9198 36.6301C21.1113 36.6136 20.5546 36.9597 20.3211 37.5979C20.0876 38.237 19.9658 39.7195 19.9447 42.0434C19.9127 45.5568 20.0464 48.2881 20.3604 50.2339C20.4593 50.7824 20.6141 51.2027 20.8256 51.4975C21.0371 51.7924 21.4427 52.1485 22.0407 52.5624C23.3235 53.4149 23.9443 54.5732 23.9031 56.0474C23.8527 57.8494 22.9115 59.1707 21.093 60.0286C19.2754 60.8866 16.2318 61.4516 11.9566 61.7107C4.00689 62.1923 0.0320472 60.4205 0.0329628 56.3944C0.0329628 55.704 0.151999 55.1455 0.390069 54.7179C0.629054 54.2921 1.17112 53.6823 2.01993 52.9076C2.97129 52.0387 3.6269 51.0379 3.96752 49.8988C4.30815 48.7606 4.54072 46.7993 4.68722 44.0414C4.79436 42.0214 4.88226 34.7612 4.85479 22.2818C4.84655 18.3225 4.68265 15.6268 4.37316 14.1902C4.06366 12.7544 3.4044 11.6703 2.40817 10.9881C1.46871 10.3444 0.813099 9.76665 0.487127 9.2484C0.16207 8.73197 0 8.06903 0 7.26418C0 6.20111 0.30766 5.28911 0.921147 4.53278C1.53463 3.77829 2.38894 3.24812 3.48223 2.9423C4.4052 2.68408 5.67155 2.60442 7.2831 2.7024C7.99181 2.74543 9.76543 2.99632 12.6076 3.44408C13.146 3.53289 13.9957 3.61073 15.1559 3.6794C17.0916 3.79477 19.681 3.76638 22.8794 3.64918C24.9057 3.5741 26.3387 3.57501 27.1546 3.62537C31.7502 3.90739 35.6225 5.52077 38.7733 8.39043C41.6137 10.9781 43.1529 14.4072 43.2866 18.7501C43.3616 21.1729 42.9285 23.3687 41.9964 25.3547C41.0633 27.3408 39.7476 28.8379 38.0655 29.8442C37.3659 30.2681 37.0171 30.7763 37.018 31.3651C37.0198 32.1425 37.5564 32.7715 38.6295 33.2495C40.9287 34.2604 42.6117 35.7758 43.6601 37.7966C44.7076 39.8184 45.4173 42.9179 45.7341 47.0566C45.8659 48.7744 46.1022 49.8823 46.4483 50.3758C46.7953 50.8694 47.6304 51.3235 48.9517 51.7337C49.3564 51.872 49.6861 52.187 49.9397 52.6769C50.1942 53.1677 50.3023 53.7207 50.2647 54.337C50.2162 55.1345 49.9049 55.9485 49.3335 56.7854C48.7622 57.6223 48.0507 58.2953 47.2019 58.8072C45.3257 59.9169 42.8251 60.578 39.6917 60.774C35.5063 61.0349 32.5908 59.8638 30.885 57.1947C30.1131 56.0034 29.4694 54.4734 28.9502 52.6036C28.4301 50.7348 27.8267 47.8038 27.1033 43.7886C26.6391 41.212 26.0137 39.388 25.2445 38.3286C24.4745 37.2692 23.3253 36.6594 21.9198 36.6301Z" fill="#121212"></path> <path d="M72.6031 16.4432C70.8185 16.3398 69.4047 17.2737 68.4277 19.0858C67.6915 20.451 67.3326 22.112 67.3948 24.0422C67.4864 26.8762 68.0514 30.1734 69.0366 33.891C70.0228 37.6095 71.1911 40.8783 72.5811 43.6821C73.1992 44.877 73.9766 45.8119 74.9224 46.4913C75.8683 47.1716 76.849 47.4884 77.8727 47.4546C79.5263 47.3978 80.9135 46.6625 82.0178 45.2579C83.1221 43.8524 83.7383 42.0348 83.8253 39.785C83.9379 36.8586 83.5644 33.6987 82.6743 30.2897C81.7834 26.8798 80.5619 23.9543 79.0813 21.5095C78.1739 20.0033 77.1392 18.8056 75.9937 17.9147C74.8473 17.0247 73.6927 16.5064 72.6031 16.4432ZM74.6834 6.1513C80.1984 6.4965 85.2702 8.53017 89.8366 12.1543C92.9324 14.6431 95.585 17.7783 97.5967 21.5718C99.5892 25.3278 100.581 29.0866 100.569 32.8252C100.552 38.3401 98.5115 43.2664 94.706 47.7192C91.4793 51.4953 87.389 54.3329 82.5993 56.2082C79.6582 57.3592 76.7656 58.0322 73.9308 58.2061C70.2151 58.4332 66.7676 57.7895 63.5207 56.189C59.5953 54.256 56.6011 51.0741 54.4365 46.636C52.3434 42.3434 51.2913 37.4675 51.2876 32.1348C51.2839 25.945 52.6144 20.4941 55.3146 15.9442C57.7173 11.8952 60.9917 9.09238 65.1552 7.46069C67.9506 6.36557 71.1206 5.9288 74.6834 6.1513Z" fill="#121212"></path> <path d="M124.616 18.2912C122.826 18.1932 121.466 19.0081 120.566 20.6005C119.886 21.8009 119.585 23.2687 119.696 24.9791C119.858 27.4898 120.47 30.4208 121.439 33.7208C122.408 37.0218 123.498 39.9171 124.789 42.3875C125.365 43.4396 126.102 44.2609 127.017 44.8543C127.932 45.4476 128.894 45.7223 129.918 45.6875C131.571 45.6307 132.995 44.9815 134.156 43.7436C135.318 42.5065 136.001 40.906 136.142 38.9217C136.325 36.3405 135.986 33.545 135.073 30.5298C134.16 27.5136 132.864 24.9269 131.3 22.7696C130.342 21.4401 129.257 20.3834 128.071 19.5969C126.886 18.8113 125.711 18.3516 124.616 18.2912ZM125.995 9.35899C131.511 9.70328 136.748 11.4851 141.552 14.6469C144.811 16.8179 147.648 19.552 149.801 22.8795C151.931 26.1713 152.992 29.4805 152.975 32.7704C152.949 37.6234 150.744 41.9498 146.708 45.8441C143.286 49.1468 138.99 51.6173 134.07 53.2691C131.049 54.2827 128.114 54.8852 125.279 55.0592C121.564 55.2872 118.192 54.7634 115.074 53.3964C111.305 51.7436 108.532 48.9747 106.552 45.0557C104.637 41.2649 103.7 36.9165 103.693 32.1606C103.685 26.6392 104.854 21.7826 107.333 17.7784C109.54 14.2156 112.598 11.7928 116.621 10.4102C119.318 9.4826 122.433 9.13649 125.995 9.35899Z" fill="#121212"></path> <path d="M187.853 39.6986C185.846 42.7029 184.733 44.2073 182.314 47.1557C181.281 48.3992 180.457 49.2306 179.902 49.6646C179.348 50.0986 178.819 50.3284 178.323 50.3559C177.85 50.3825 177.491 50.2396 177.241 49.9237C177.077 49.7241 176.811 48.9788 176.353 47.6383C175.896 46.2977 175.478 45.0708 175.141 43.9848C174.107 40.7031 173.452 38.9936 171.896 35.5333C171.367 34.3293 170.747 33.7222 170.089 33.7249C169.388 33.7268 169.001 34.2523 168.885 35.2943C168.629 37.6137 168.323 39.7545 168.033 41.692C167.732 43.7083 167.53 45.0689 167.609 45.7419C167.656 46.1439 167.798 46.4488 168.003 46.6265C168.207 46.805 168.804 47.1163 169.782 47.5513C170.414 47.837 170.624 48.3662 170.393 49.1353C169.779 51.1873 166.3 52.3603 160.134 52.7339C154.935 53.0488 152.681 52.1854 153.221 50.0748C153.36 49.5337 153.589 49.1326 153.918 48.8762C154.247 48.6198 155.031 48.2224 156.268 47.6868C157.049 47.3645 157.62 46.946 157.975 46.4287C158.331 45.9113 158.744 44.9124 159.162 43.4308C159.608 41.8486 160.187 39.2298 160.53 35.5571C160.872 31.8845 160.819 28.73 160.585 26.1305C160.291 22.8699 159.61 20.6924 158.851 19.5369C158.581 19.1377 158.299 18.8364 158.009 18.6313C157.72 18.4262 157.195 18.1543 156.434 17.8127C154.751 17.0857 153.794 16.1865 153.533 15.1381C153.364 14.4587 153.486 13.8571 153.901 13.3333C154.315 12.8105 154.967 12.4745 155.833 12.2968C156.696 12.1192 157.898 11.9736 159.419 11.8939C160.939 11.8152 162.245 11.8115 163.339 11.8793C166.088 12.0487 168.1 12.3573 169.375 12.8004C169.998 13.0129 170.526 13.2793 170.955 13.6025C171.384 13.9258 172.066 14.5786 172.969 15.5703C176.959 19.8729 178.777 22.0861 181.98 26.4601C182.854 27.6596 183.415 28.3912 183.718 28.6577C184.021 28.9251 184.423 29.0597 184.927 29.0652C185.365 29.0688 185.745 28.9315 186.065 28.655C186.384 28.3775 186.746 27.8583 187.128 27.1029C188.663 24.0648 189.315 22.5732 190.357 19.7319C190.667 18.8181 190.842 18.2376 190.926 17.9684C191.431 16.2845 192.017 15.2397 192.807 14.7517C193.812 14.13 196.028 13.9221 199.485 14.1355C205.561 14.5109 209.175 15.6591 210.037 17.7138C210.232 18.1753 210.259 18.5443 210.128 18.8163C209.997 19.0882 209.625 19.4096 209.039 19.7924C208.24 20.3134 207.866 21.1539 207.906 22.2518C207.991 24.5483 208.295 27.4902 208.414 30.9706C208.567 35.4537 208.241 39.3855 207.906 42.6132C207.826 43.4034 207.861 43.929 208.044 44.2018C208.227 44.4747 208.792 44.8712 209.722 45.3775C210.362 45.7355 210.557 46.2346 210.292 46.8728C209.828 47.988 208.444 48.8075 206.222 49.3762C205.066 49.6857 203.899 49.9146 202.721 50.062C201.543 50.2094 199.773 50.355 197.41 50.4988C193.779 50.7185 191.16 50.692 189.548 50.3935C187.762 50.0629 187.083 49.335 187.473 48.2105C187.617 47.7958 187.859 47.446 188.207 47.163C188.553 46.881 189.382 46.3573 190.675 45.5945C191.346 45.2026 191.938 44.4793 192.4 43.407C192.863 42.3357 193.382 40.5127 193.686 37.8902C193.855 36.4334 193.825 35.4711 193.686 35.0142C193.547 34.5572 193.21 34.3283 192.683 34.332C192.07 34.3347 191.468 34.6937 190.855 35.4097C190.241 36.1267 189.299 37.5578 187.853 39.6986Z" fill="#121212"></path> <path d="M230.294 15.8775C232.505 16.0157 235.642 16.5468 239.685 17.4423C240.169 17.5485 240.539 17.609 240.798 17.6236C241.013 17.6355 241.581 17.5495 242.493 17.3736C242.783 17.3141 243.121 17.2967 243.508 17.3196C244.948 17.4048 246.997 18.1758 249.446 19.6893C251.895 21.202 253.361 22.6423 253.859 24.0213C254.151 24.8261 253.988 25.5056 253.405 26.0559C252.823 26.6062 251.99 26.8781 250.94 26.8571C250.066 26.8406 249.33 26.706 248.727 26.4533C248.126 26.2015 246.766 25.4589 244.54 24.2218C241.396 22.4693 238.454 21.5417 235.934 21.4437C234.717 21.397 233.828 21.5609 233.25 21.9464C232.672 22.3328 232.496 22.8676 232.701 23.5543C233.107 24.9104 235.002 25.9927 238.472 26.7527C243.177 27.7837 246.183 28.5171 247.508 28.9621C253.337 30.9354 256.344 33.6952 255.615 37.2598C254.969 40.4115 251.927 42.9075 247.126 44.943C242.214 47.0243 236.524 48.2412 230.361 48.6185C227.611 48.7869 224.852 48.7558 222.05 48.4884C219.247 48.2211 217.304 47.8081 216.249 47.2422C215.444 46.81 215.008 45.7662 214.756 44.0539C214.504 42.3426 214.513 40.5973 214.814 38.8695C214.96 38.039 215.266 37.4035 215.752 36.9704C216.365 36.4238 217.08 36.1372 217.913 36.1271C218.745 36.1171 219.514 36.4394 220.194 37.0831C220.605 37.4447 221.556 38.6241 222.786 40.5168C223.371 41.4086 224.428 42.1137 225.989 42.6356C227.548 43.1584 229.247 43.3718 231.115 43.3003C232.723 43.239 234.11 42.9817 235.262 42.5275C236.414 42.0743 237.103 41.524 237.303 40.8629C237.488 40.2494 237.236 39.7247 236.558 39.2898C235.88 38.8539 234.691 38.4556 232.994 38.0903C230.002 37.4301 227.711 36.7901 226.139 36.1903C224.568 35.5906 223.106 34.8168 221.722 33.8627C218.359 31.5177 216.51 28.7433 215.968 25.7418C215.7 24.2575 215.797 22.8383 216.264 21.5106C216.731 20.1838 217.538 19.0923 218.738 18.2307C221.395 16.2346 225.101 15.5533 230.294 15.8775Z" fill="#121212"></path> </svg> 